<svg xmlns="http://www.w3.org/2000/svg" width="920" height="520" viewBox="0 0 920 520" role="img" aria-labelledby="title desc">
  <title id="title">Sprint 1 burndown chart through Week 1</title>
  <desc id="desc">Burndown chart showing 28 planned story points, 13 completed, and 15 remaining as of 2026-05-30.</desc>
  <rect width="920" height="520" fill="#ffffff"/>
  <text x="64" y="46" font-family="Arial, sans-serif" font-size="24" font-weight="700" fill="#1f2937">Sprint 1 Burndown - Week 1</text>
  <text x="64" y="74" font-family="Arial, sans-serif" font-size="14" fill="#4b5563">Generated from Jira status and story point estimates after SCRUM-1, SCRUM-2, and SCRUM-3 were marked Done.</text>

  <line x1="92" y1="422" x2="830" y2="422" stroke="#111827" stroke-width="2"/>
  <line x1="92" y1="96" x2="92" y2="422" stroke="#111827" stroke-width="2"/>

  <g font-family="Arial, sans-serif" font-size="12" fill="#4b5563">
    <text x="52" y="426">0</text>
    <text x="52" y="373">5</text>
    <text x="46" y="319">10</text>
    <text x="46" y="265">15</text>
    <text x="46" y="210">20</text>
    <text x="46" y="156">25</text>
    <text x="46" y="102">30</text>
    <text x="82" y="454">May 25</text>
    <text x="386" y="454">May 30</text>
    <text x="792" y="454">Jun 15</text>
  </g>

  <g stroke="#e5e7eb" stroke-width="1">
    <line x1="92" y1="368" x2="830" y2="368"/>
    <line x1="92" y1="313" x2="830" y2="313"/>
    <line x1="92" y1="259" x2="830" y2="259"/>
    <line x1="92" y1="205" x2="830" y2="205"/>
    <line x1="92" y1="151" x2="830" y2="151"/>
    <line x1="92" y1="96" x2="830" y2="96"/>
  </g>

  <polyline points="92,118 830,422" fill="none" stroke="#9ca3af" stroke-width="3" stroke-dasharray="8 8"/>
  <polyline points="92,118 420,259" fill="none" stroke="#2563eb" stroke-width="4"/>

  <circle cx="92" cy="118" r="5" fill="#2563eb"/>
  <circle cx="420" cy="259" r="5" fill="#2563eb"/>

  <g font-family="Arial, sans-serif" font-size="13">
    <rect x="626" y="104" width="184" height="78" rx="4" fill="#f9fafb" stroke="#d1d5db"/>
    <line x1="644" y1="128" x2="690" y2="128" stroke="#2563eb" stroke-width="4"/>
    <text x="700" y="132" fill="#1f2937">Actual remaining</text>
    <line x1="644" y1="158" x2="690" y2="158" stroke="#9ca3af" stroke-width="3" stroke-dasharray="8 8"/>
    <text x="700" y="162" fill="#1f2937">Ideal remaining</text>
  </g>

  <g font-family="Arial, sans-serif" fill="#1f2937">
    <text x="110" y="113" font-size="13">28 SP</text>
    <text x="438" y="264" font-size="13">15 SP remaining</text>
    <text x="380" y="287" font-size="13" fill="#4b5563">13 SP completed</text>
  </g>

  <text x="398" y="492" font-family="Arial, sans-serif" font-size="13" fill="#4b5563">Sprint timeline</text>
  <text x="20" y="265" transform="rotate(-90 20 265)" font-family="Arial, sans-serif" font-size="13" fill="#4b5563">Story points remaining</text>
</svg>
